<?xml version="1.0" encoding="UTF-8"?>
<svg id="_レイヤー_1" data-name="レイヤー 1" xmlns="http://www.w3.org/2000/svg" xmlns:xlink="http://www.w3.org/1999/xlink" viewBox="0 0 64 64">
  <defs>
    <style>
      .cls-1 {
        fill: #fff;
      }

      .cls-2 {
        fill: #333;
      }

      .cls-3 {
        fill: #f15a24;
      }

      .cls-4 {
        fill: url(#_夏);
      }
    </style>
    <radialGradient id="_夏" data-name="夏" cx="32" cy="32" fx="32" fy="32" r="32" gradientUnits="userSpaceOnUse">
      <stop offset="0" stop-color="#fff"/>
      <stop offset=".09" stop-color="#ffecd8"/>
      <stop offset=".21" stop-color="#ffd4a7"/>
      <stop offset=".33" stop-color="#ffc07d"/>
      <stop offset=".46" stop-color="#ffb05a"/>
      <stop offset=".59" stop-color="#ffa340"/>
      <stop offset=".72" stop-color="#ff9a2d"/>
      <stop offset=".86" stop-color="#ff9421"/>
      <stop offset="1" stop-color="#ff931e"/>
    </radialGradient>
  </defs>
  <g>
    <circle class="cls-2" cx="32" cy="32" r="32"/>
    <path class="cls-4" d="M32,4c15.44,0,28,12.56,28,28s-12.56,28-28,28S4,47.44,4,32,16.56,4,32,4M32,0C14.33,0,0,14.33,0,32s14.33,32,32,32,32-14.33,32-32S49.67,0,32,0h0Z"/>
  </g>
  <g>
    <path class="cls-1" d="M24.5,13.33c0,.18-.2.31-.49.34-.02.25-.05.58-.07.94.25,2.92,1.42,10.06,7.87,13.04-.68.5-1.31,1.24-1.66,1.84-4.12-2.02-6.19-5.74-7.24-9.09-.95,3.19-2.85,6.72-6.68,9.09-.38-.56-1.08-1.21-1.82-1.71,7.27-4.03,7.02-12.3,7.15-14.69l2.94.25Z"/>
    <path class="cls-1" d="M36.72,17.22c-.58.94-1.22,1.78-1.91,2.48h11.72c-.04,4.38.2,7.81,1.26,7.81.27-.02.34-.97.38-2.45.41.5.95,1.04,1.4,1.35-.16,2.27-.56,3.24-1.95,3.24-2.65,0-3.19-3.47-3.29-8.14h-9.76v-1.6l-.23.22c-.41-.38-1.28-.99-1.82-1.3,1.71-1.33,3.1-3.76,3.8-6.27l2.59.68c-.07.14-.23.23-.5.23-.09.31-.2.59-.32.9h10.79v1.8h-11.58l-.49.86h10.41v1.75h-10.5v-1.58ZM36.17,22.21c.94.5,2,1.1,3.04,1.76.63-.74,1.17-1.53,1.6-2.36l2.38.9c-.07.14-.25.23-.52.2-.49.85-1.06,1.66-1.71,2.39,1.15.81,2.2,1.62,2.9,2.34l-1.73,1.64c-.65-.7-1.62-1.53-2.72-2.36-1.42,1.3-3.04,2.38-4.77,3.17-.32-.43-1.03-1.22-1.48-1.6,1.62-.67,3.19-1.62,4.52-2.79-1.03-.68-2.09-1.33-3.06-1.87l1.55-1.42Z"/>
    <path class="cls-3" d="M26.63,51.27h-2.07l-2.31-4.45c-.57-1.11-1.2-2.44-1.65-3.61h-.06c.08,1.33.13,2.84.13,4.76v3.31h-1.88v-10.77h2.24l2.27,4.37c.57,1.08,1.18,2.4,1.61,3.52h.03c-.13-1.37-.18-2.9-.18-4.65v-3.24h1.88v10.77Z"/>
    <path class="cls-3" d="M35.39,47.31c0,2.97-1.91,4.12-3.64,4.12-2.1,0-3.61-1.49-3.61-4.02s1.58-4.1,3.7-4.1,3.56,1.64,3.56,4.01ZM31.79,44.83c-1.15,0-1.56,1.34-1.56,2.54,0,1.39.53,2.54,1.54,2.54s1.51-1.16,1.51-2.55c0-1.22-.43-2.52-1.5-2.52Z"/>
    <path class="cls-3" d="M36.47,50.09c0-.77.53-1.33,1.25-1.33s1.25.53,1.25,1.33-.49,1.33-1.25,1.33-1.25-.57-1.25-1.33Z"/>
    <path class="cls-3" d="M40.96,51.27v-14.98h-.05l-3.12,1.63-.77-2.54,4.42-2.26h2.98v18.15h-3.46Z"/>
  </g>
</svg>