<?xml version="1.0" encoding="UTF-8"?>
<svg id="_レイヤー_1" data-name="レイヤー 1" xmlns="http://www.w3.org/2000/svg" viewBox="0 0 600 200">
  <defs>
    <style>
      .cls-1 {
        fill: #ef343b;
      }
    </style>
  </defs>
  <g>
    <path class="cls-1" d="M194.29,158.85c-.22-.1-.35.02,0,0h0Z"/>
    <path class="cls-1" d="M373.65,160.12c.07,0,.1-.02.17-.02.1-.41.2-.76.3-1.03l-.47,1.05Z"/>
    <path class="cls-1" d="M402.49,160.4c.07.04.12.06.18.09-.04-.24-.03-.48-.18-.09Z"/>
    <path class="cls-1" d="M307.13,165.61c-.25-.03-.39.06-.49.19.14-.09.29-.16.49-.19Z"/>
    <path class="cls-1" d="M140.62,154.36s.08-.01.13-.02c-.1-.09-.2-.16-.29-.27l.16.3Z"/>
    <path class="cls-1" d="M141.29,153.74c.62.36-.24.54-.54.6.66.62,1.38.74,2.13.57.06-.61-1.32-.67-1.6-1.16Z"/>
    <path class="cls-1" d="M42,150.75l.3-.25c-.12.06-.21.15-.3.25Z"/>
    <path class="cls-1" d="M310.04,195.91c-.15.06-.31.09-.45.15.23.02.36-.05.45-.15Z"/>
    <path class="cls-1" d="M57.51,151.54l.19-.97c-.16.4-.2.71-.19.97Z"/>
    <path class="cls-1" d="M374.12,159.07l.18-.4c-.07.09-.12.23-.18.4Z"/>
    <path class="cls-1" d="M429.08,158.08c.05.3.14.53.23.72.03,0,.06,0,.08,0l-.31-.72Z"/>
    <path class="cls-1" d="M566.95,162.74c-.01-.12-.04-.25-.08-.38l-.54.7c.29-.06.49-.17.61-.32Z"/>
    <path class="cls-1" d="M466.54,157.63c.02-.12.1-.23.09-.35-.67-.25-2.36-.12-4.51.18v1.21s4.42-1.04,4.42-1.04Z"/>
    <path class="cls-1" d="M509.48,181.68l-4.05-2.15c6.19-.97,10.78-.96,15.13-1.02,4.37.02,8.5-.05,13.81-1.27l-.57.55c.79.24,1.35-1,3.9-1.58,2.54-.59,7.13-.36,15.83,2.71v.24c.6-.06.59-.54,1.8.07l-3.02-1.4c1.77-.65,3.31-1.85,5.69-2.08.51.25.69.75.75,1.13,1.94-.2,3.9-.33,5.85-.49l1.82,1.55c1.78-.86.93-4.15,5.75-2.36-1.83-2.27,2.37-1.39,1.77-2.55.24.28.8.7,1.24,1.09,2.85-.29,8.24-.98,9.57-2.16,0,0-11.22-4.73-14.28-7.15,4.05.59,1.07-.29.26-1.05l-.26.57c-2.43-.54-2.45-1.98-3.67-2.37,0,.12.04.26.08.4l.15-.19c.12.25.05.43-.08.58.03.31-.08.55-.74.47l.12-.15c-1.01.22-2.77,0-3.53-.09l-.03-1.21c-1.75,2.26-12.18-3.21-14.63-3.24-2.48-1.46-5.45.52-8.52-.16-4.87-.2-2.49-1.66-4.98-2.59-3.08-.61.68,1.38-.55,1.52l-3.73-1.51c2.12-.24.93-.92.52-1.36-3.17-.06-8.29-2.04-9.13.41-4.33-.97-4.41-1.86-6.25-1.88.64.4,1.89.71,1.92,1.2-1.78-.95-.8.32-.09.51-2.53,1.22-13.87-3.47-14.23-.79l-.04-.48c-.46,2,.66,3.84-1.07,5.05l-1.28-.77-1.76,1c-1.28-.53-.72-1.1-.74-1.35-2.9,1.17-7.14.45-10.77.51l4.31,5.01c-1.57-.48-3.78-1.24-5.65-1.63-1.87-.37-3.41-.41-3.62.48l-2-1.6c-6.45-2.78-4.08,1.94-6.61,1.17l-3.27-1.61,3.04-.31c-3.16-.67-4.43-1.13-7.01-2.12,0,.02-.02.04-.02.06.18.06.3.14.33.26l-.42.1c-.25,1.02-1.75,1.88-3.9,2.07-3.07.09-5.25,1.82-10.33.38l-.95,2.15-3.77-.72-.2-1.59c3.56-.35,10.13-1.84,14.72-2.46v-.73c-2.73.33-5.73,1.41-7.53,1.49-.91-.2-3.35-1.57-1.87-2.85l-1.47,1.77c-9.01,1.34-9.02,1.42-18.6.82l.91.69c-1.8.71-3.58,1.39-4.25.16-5.6.4-11.51.14-15.32-1.53l-.58,1.96c-1.19.02-3.24-2.62-3.53.06l-2.42,1.09c-1.62.02-2.49,1.22-4.42.3h0s-.01,0-.01,0c-.12-.06-.24-.12-.37-.19,0,.06.02.11.04.15-3.7-.51.19,1.68-4.06.96-1.45-1.22-1.26,2.51-3.33,2.26l-2.26-2.51c-1.9-.61-2.94-.23-4.18.37-1.24.57-2.68,1.35-5.35,1.53-2.63-.79-4.01-3.01-2.46-5.16-2.15,2.63-.94,1.68-3.95,3.08-.54-.99-.22-1.22.4-2.18-2.8-1.01-1.63,1.03-3.69,1.11-.48,1.96-1,5.05-1.67,5.22l.84.54c-2.14,1.16-4.53,1.73-7.14.89l.05-.97-2.7.61-.23-1.23-3.87.56.55.31c-.91.21-3.89.77-5.63.2l.04-.69c-4.92-1.98-8.82.91-14.51,1.29l.71-1.42c-1.97-1.34-.48,2.17-2.8,1.53l-.15-1.72c-1.98,2.31-2.64-.41-4.05-1.23l.7,2.24c-.88-.14-1.76-.26-2.65-.42-2.92-.72-1.83-2.83-1.42-4.02l-1.95,1.79-.41-1.99c-1.41,2.33-1.45-.36-3.96.9-.22-.75.42-1.19-.45-1.5l-4.15,2.84,2.51-1.26-.28,2.91c-2.61,2.23-3.56-.29-5.43.54l1.29-.87c-3.06.73-3.23-.5-4.96-1.13.54.54,1.36,1.33.12,1.72-.91.17-.5-1.02-1.36-1.33-.2,1.93-2.4,3-4.39,2.07.02-.28.07-.54.2-.72-.51.31-.77.81-1.66.33l.52-2.15-1.71,2.03c-1.13-.6-2.8.95-2.64-.5l.65-.43-8.59-.59-.1-1.72c-.88,2.36-4.66-.94-4.42,2.02-1.6-1.63-6.4,1.09-5.39-2.24-5.61-.41-8.73,2.72-15.53.92-1.17-1.45-3.43-1.98-5.94-2.22-2.5-.28-5.26-.25-7.43-.5-4.29.39-7.84.8-11.4,1.15-3.56.29-7.14.54-11.53.7-1.24-1.07-2.68-1.58-4.23-1.78-1.55-.2-3.2-.14-4.88,0-3.35.26-6.79.73-9.49-.63l-1.69,1.43c-3.49-2.89-9.52-.44-14.5-3.44-1.37.53-2.07.66-2.38.68.23.1.56.44.56,1.45-1.42-.88-4.57-.37-4.12-2.32l.41-.16c.46-1.95-4.67.37-6.14-1.54l.66,2.23-2.81-.71.82-.31c-13.04,3.11-17.84-4.38-30.24-1.55,1.86-2.12-2.49.93-2.34-1.61-2.62-3.53-5.64,0-8.2.58-.01.12-.06.27-.22.45l-4.28-.76c2.92-2.92-3.39,2.32-.73-.15-2.75-.89-5.75-1.53-8.91-1.96-3.17-.41-6.48-.65-9.86-.86-1.69-.1-3.39-.2-5.1-.3-1.71-.08-3.42-.16-5.12-.24-3.41-.19-6.78-.47-10.04-.97l.52.86c-3.31-.42-7.49.46-9.94-.99-2.46-1.43-5.6,1.84-6.58,1.93-2.81,1.3-5.2-1.65-4.03-1.45-2.97.25-5.82,3.16-9.86,1.78-1.33-2.76-11.19,2.38-11.24-.69l-.05.26c-5.19-2.29-10.16,1.41-15.75-.61,0,0,.11-.22.3-.43l-11.44,9.23,3.21,10.28,9.7,8.41c4.39-.25,8.8-.57,13.18-.76l13.17-.55c6.98,1.2,13.87,2.72,20.76,4.1,16.91.54,33.71,1.52,50.58,3.11l3.89-1.86c9.45,5.17,22.91,2.28,33.52,6.54l.48-1.95c3.1.27,2.75,1.46,3.47,1.9,14.45,1.63,29.41,2.31,43.88,3.05,7.25.25,14.39.74,21.35,1.09,6.96.41,13.76,1.09,20.29,1.83,2.49,1.38,10.21.81,12.17,2.26,8.57-2.27,17.54-2.24,26.06-1.9l-.32.22c1.34-.11,2.67-.25,4.01-.39.17.16.19.4.06.55,4.52-1.8,11.64-.11,17.19.56l-.32.22c2.02,0,4.03,0,6.04-.04,2.01-.07,4.01-.14,6-.22,3.99-.17,7.94-.38,11.88-.61,3.93-.2,7.86-.59,11.77-.9,3.91-.33,7.81-.66,11.7-.99,15.6-1.5,31.15-3.01,47.33-3.46,15.29,1.52,31.8-5.32,48.61-4.59,1.65.77,10.73-.12,19.75-1.27,4.51-.52,9.02-1.13,12.58-1.68,3.56-.54,6.18-.94,6.9-1.23Z"/>
    <path class="cls-1" d="M558.76,176.88h-.13c.02.85.21.53.13,0Z"/>
    <path class="cls-1" d="M487.24,157.82c.08,0,.15,0,.23,0l-.96-1.1.73,1.1Z"/>
    <path class="cls-1" d="M532.75,154.05c-2.06-.17-2.15.04-1.84.36.74.02,1.39-.08,1.84-.36Z"/>
    <path class="cls-1" d="M575.16,175.11c1.06.06.65-.44.03-.99-1.08.1-1.83.17-1.83.17.59.19,1.19.63,1.8.83Z"/>
    <path class="cls-1" d="M570.74,163.76l.33-.68c-.63.17-.6.42-.33.68Z"/>
  </g>
  <g>
    <path d="M12.21,124.88l-.49.29.39-.78.1.49ZM13.38,129.08l-.1-.78h-.49c.45-.65.49-1.3.1-1.95.52-.33.55-.75.1-1.27-.26-7.94,2.21-14.94,7.42-21-2.34-1.04-3.94-2.7-4.79-4.98,3.06-.85,6.12-.98,9.18-.39,3.65,1.5,7.03,3.52,10.16,6.05,2.08,2.47,2.7,5.31,1.86,8.5-.91,1.11-1.69,2.21-2.34,3.32l-1.07,1.17c2.34-1.56,4.88-2.83,7.62-3.81-.2.07-.23.13-.1.2.39.26.78.2,1.17-.2l-.68-.2c.59-.06,1.14-.26,1.66-.59,2.34-.78,4.75-.75,7.23.1.33-.13.55-.42.68-.88,2.02.85,4.1,1.43,6.25,1.76l-.2.29c1.24.85,2.28,1.86,3.12,3.03.65.13,1.24.42,1.76.88.13.78.45,1.14.98,1.07-.13.46-.03.81.29,1.07l.49-.39c.26.2.45.13.59-.2-.13.33-.16.62-.1.88.59.72,1.07,1.53,1.46,2.44l.1-.68c-.2,1.43-.29,2.83-.29,4.2.26-.59.62-1.11,1.07-1.56.06.33.23.59.49.78.59,0,.94-.23,1.07-.68.45.59.85,1.21,1.17,1.86l.39-.49c.98,3.39.78,6.67-.59,9.86.91,3.58.59,6.87-.98,9.86-1.24,1.37-2.54,2.64-3.91,3.81-1.17.65-2.25,1.4-3.22,2.25-2.8,2.02-5.89,3.19-9.28,3.52l-.39.68c-.26-.07-.46-.2-.59-.39-1.95.39-3.74,0-5.37-1.17-.78-.39-1.56-.75-2.34-1.07-.39.2-.62.1-.68-.29-.98-.07-1.89-.36-2.73-.88-.13-.59.2-.98.98-1.17-.33-.06-.39-.26-.2-.59.33,0,.52-.16.59-.49-.33-.2-.65-.26-.98-.2l-.49-.49.78-.1-.68-.78c.45.52.94.59,1.46.2-.78-.59-1.21-1.4-1.27-2.44.52-.2,1.11-.23,1.76-.1-.59.33-.72.88-.39,1.66.85-.33,1.17-1.07.98-2.25-.2-.91-.03-1.72.49-2.44l.49.49c.45-1.63,1.66-2.83,3.61-3.61,1.24-.98,2.67-1.59,4.3-1.86,2.41-1.89,3.94-4.33,4.59-7.32-.39-.59-.85-1.04-1.37-1.37-.39-2.73-1.79-4.82-4.2-6.25-1.76.33-3.09,1.24-4,2.73,0-.13-.03-.26-.1-.39-.2.39-.42.72-.68.98v-.59c-1.11.59-1.82,1.46-2.15,2.64-4.04,3.58-8.2,6.93-12.5,10.06-4.43,1.11-8.59.46-12.5-1.95l-2.73-3.12c.06-1.3-.23-2.54-.88-3.71l.59-.2c-.2-.91-.62-1.72-1.27-2.44-.33.78-.41,1.35-.24,1.71.16.36.11.24-.15-.34ZM13.28,127.81v-.39h-.1v.39h.1ZM55.17,75.56h.88c.98,1.56,2.31,2.93,4,4.1,1.69,1.17,2.18,2.8,1.46,4.88-.07,1.04.16,2.02.68,2.93.85.65.98,1.6.39,2.83-.33,1.17-.81,2.18-1.46,3.03-.46,1.11-1.04,2.12-1.76,3.03-1.56,2.41-3.19,4.69-4.88,6.84-2.48-.13-4.95-.26-7.42-.39v-.59c-6.25-.98-11.07-3.97-14.45-8.98-2.73-2.47-3.65-5.5-2.73-9.08,2.41-5.08,6.28-8.63,11.62-10.64,4.17-2.21,7.11-2.78,8.84-1.71,1.72,1.07,3.34,2.33,4.83,3.76ZM39.35,150.27v.39h-.2v-.39h.2ZM43.65,151.83l.2-.59c.06-.85.06-1.69,0-2.54,0-.06-.03-.16-.1-.29.06.13.1.23.1.29-.46.39-.52.75-.2,1.07.26.85.2,1.29-.2,1.32-.39.03-.33.28.2.73ZM45.12,149.1h.49v-.39c-.2.07-.33.03-.39-.1l-.39.39-.2-.68v1.46l.29-.39c.33.2.39.1.2-.29ZM48.63,111.79h-.29c-.07-.39.1-.52.49-.39,0,.2-.07.33-.2.39ZM49.61,112.18c-.07.13-.2-.03-.39-.49l-.39.39c.39-.46,1.01-.49,1.86-.1,0,.26-.1.42-.29.49-.26-.26-.52-.36-.78-.29ZM49.41,88.26h.49l.49-1.17-.98,1.17ZM57.52,116.38h.1l-1.27-.88c.33.46.72.75,1.17.88ZM58.59,117.46l-.68-.78c-.13.59.1.85.68.78ZM59.57,120.19h.78c-.26-.59-.62-1.14-1.07-1.66l-.29-.68c0,.26.1.49.29.68.45.52.55,1.07.29,1.66ZM62.21,85.13v-.78h.1v.78h-.1Z"/>
    <path d="M161.93,111.89l.29.68c-.46,1.76-.38,3.58.24,5.47.62,1.89.18,3.58-1.32,5.08-.65.13-1.3.03-1.95-.29-1.76.26-3.61.16-5.57-.29-.98,0-1.92-.13-2.83-.39-2.21,0-4.36.1-6.45.29-3.19.13-6.35.16-9.47.1-2.15-.39-4.3-.49-6.45-.29-1.89.13-3.87.2-5.96.2-1.37.2-2.67.42-3.91.68-.52-.13-.88-.03-1.07.29l-7.42-.2c-.85.39-1.79.55-2.83.49-6.58.78-13.15.98-19.73.59-.65-.06-1.14-.33-1.46-.78.06-.39-.1-.65-.49-.78h-.1c-.39-.26-.59-.65-.59-1.17l-.59-.68c-.91-3.06-1.27-6.22-1.07-9.47l.78-.98c1.37.13,3.06.78,5.08,1.95,3.58-.33,7.19-.65,10.84-.98,5.21-.06,10.45-.13,15.72-.2,5.92-.06,11.78-.26,17.58-.59,7.68-.52,15.36-.39,23.05.39,1.95-.26,3.84.03,5.66.88Z"/>
    <path d="M184.67,150.07v-.39c-7.94-4.36-11.88-11.04-11.82-20.02.26-1.89.39-3.84.39-5.86.85-.52,1.24-1.27,1.17-2.25l.29-.2v.1c.65-.52,1.01-1.2,1.07-2.05,3.65-4.43,7.88-8.24,12.7-11.43.45-.39.98-.78,1.56-1.17,1.17-.72,2.28-1.59,3.32-2.64-.2-2.93-.39-5.89-.59-8.89-.59-1.43-.72-2.96-.39-4.59l.88-5.76c-.26-.33-.36-.72-.29-1.17.33.33.72.29,1.17-.1.26-.13.36-.36.29-.68l.1.1c.13,0,.2-.13.2-.39-.46,0-.72-.29-.78-.88.39.52.88.91,1.46,1.17-.52-.59-.52-1.24,0-1.95.06.65.2,1.27.39,1.86,2.34-.65,4.56-.23,6.64,1.27.13-.06.29-.2.49-.39.78,1.5,2.05,2.41,3.81,2.73,1.17.72,2.18,1.6,3.03,2.64.39.85.26,1.77-.39,2.78-.65,1.01-.23,1.51,1.27,1.51.13,1.95.2,3.87.2,5.76-.2.52-.26,1.01-.2,1.46,2.54.2,5.08-.06,7.62-.78.52.2,1.11.16,1.76-.1.72.26,1.24.07,1.56-.59-.85-.59-.98-1.37-.39-2.34,2.15-1.95,4.39-3.87,6.74-5.76,3.19-.13,5.7,1.17,7.52,3.91,1.43,1.89,1.99,4.04,1.66,6.45-.13,1.24-.62,2.46-1.46,3.66-.85,1.21-.65,2.29.59,3.27,2.41,1.04,4.62,2.41,6.64,4.1,4.69,4.17,7.23,9.31,7.62,15.43.52,2.41.26,4.69-.78,6.84-1.04,1.43-2.31,2.41-3.81,2.93l-.39.49c-3.12-1.24-5.05-3.58-5.76-7.03.78-2.67,1.04-5.37.78-8.11-.39-4.1-2.02-7.58-4.88-10.45-1.43-.52-2.6-1.43-3.52-2.73-5.47,4.43-9.99,9.54-13.57,15.33l-.39.2c-.26.78-.62,1.43-1.07,1.95.33,2.21,1.24,4.17,2.73,5.86,1.17,1.3,2.08,2.77,2.73,4.39,3.19.78,5.04,2.57,5.57,5.37-.98.13-1.63.68-1.95,1.66-1.43.52-2.83.62-4.2.29-3.45,1.04-6.84.81-10.16-.68-.52-.72-1.07-1.4-1.66-2.05-.13.13-.26.16-.39.1l-.1-.88c-.33.39-.68.59-1.07.59-.52.65-1.17.91-1.95.78,0,1.17-.46,2.02-1.37,2.54.2.33.26.62.2.88-.39.2-.52.46-.39.78-1.11,2.28-2.77,4.04-4.98,5.27l.1,1.07c-1.24-.52-2.38-.59-3.42-.2-3.45-.2-6.67-1.07-9.67-2.64-.85-.2-1.63-.46-2.34-.78l-.1.39ZM188.48,130.05l-.29.78c0,.72-.13,1.3-.39,1.76.33,2.21,1.4,3.86,3.22,4.93,1.82,1.07,3.32,2.43,4.49,4.05.33-.33.68-.55,1.07-.68,1.04-3.32,2.41-6.54,4.1-9.67.39-.52.45-1.07.2-1.66.26-.39.55-.81.88-1.27.33-1.11.16-2.25-.49-3.42-.78-1.24-1.43-2.54-1.95-3.91l-.68.49c-.39-.46-.42-1.01-.1-1.66.13.33.2.65.2.98-.07-1.82-.62-3.52-1.66-5.08-.07.2-.03.33.1.39l-.39.39-.1-1.27-.29.49.2-.1.1,1.17c.26.07.42-.03.49-.29,0,.72.06,1.43.2,2.15-.13.13-.26.2-.39.2-.33-.26-.42-.65-.29-1.17-.33-.91-.68-1.86-1.07-2.83-2.02,2.41-3.78,4.98-5.27,7.71-.39,2.02-.91,3.47-1.56,4.35-.65.88-.75,1.94-.29,3.17ZM200.1,126.93l-.2-.1c-.2-1.69-.65-3.38-1.37-5.08,0,.46.16.75.49.88l.1-.68c-.2.98,0,1.86.59,2.64h.39c-.13.78-.08,1.3.15,1.56.23.26.18.52-.15.78ZM201.27,116.58l-.29-1.95c-.46.65-.36,1.3.29,1.95ZM201.27,126.73h.1v.39h-.1v-.39ZM210.84,111.4l.1-.59h-.29l.29,1.66,1.07-.68-.29.68.39.1c-.2.13-.23.23-.1.29.39-.33.68-.78.88-1.37.06.13.13.23.2.29,1.17-1.5,2.38-3.06,3.61-4.69-1.69.39-3.35.78-4.98,1.17l-.78.59v1.27c-.07,0-.1-.06-.1-.2-.07.13-.03.23.1.29v-.1c.52.65.7,1.19.54,1.61-.16.42-.38.31-.63-.34Z"/>
    <path d="M334.42,112.77l.39-.1c.33.59.46,1.14.39,1.66,1.11,2.21,1.76,4.59,1.95,7.13-.2-1.56-.68-2.96-1.46-4.2-.39-2.02-1.27-3.81-2.64-5.37.13-.2.2-.46.2-.78-.33-.33-.68-.36-1.07-.1.59,1.17,1.07,2.34,1.46,3.52-.2.13-.26.29-.2.49.65.91.98,1.92.98,3.03-.13,1.24.26,2.15,1.17,2.73h.1v.49h-.1c-.07-.2-.2-.39-.39-.59.39,1.76.52,3.48.39,5.18l-.39-.39c-.33,1.76-.26,3.45.2,5.08.06.07.1.03.1-.1-.52,6.25-2.38,11.98-5.57,17.19-3.32,3.45-7.32,5.63-12.01,6.54.13.65-.16,1.01-.88,1.07-1.24-.52-2.44-.98-3.61-1.37l.2.39c-2.54-1.63-4.69-3.68-6.45-6.15-.2.33-.46.36-.78.1-.07-.85-.36-1.24-.88-1.17.26.2.2.39-.2.59-1.24-2.28-2.64-4.46-4.2-6.54-1.76,2.15-3.48,4.26-5.18,6.35.06.13.1.26.1.39-.65.07-1.01-.23-1.07-.88-.33.33-.49.72-.49,1.17v-.39c-.33-.13-.59-.03-.78.29l-.29-.59c-.85.72-1.73,1.33-2.64,1.86-.26.78-.26,1.53,0,2.25-1.11,1.17-2.47,1.89-4.1,2.15.06-.13.1-.29.1-.49-.52-.13-.91.03-1.17.49-.2.39-.52.59-.98.59-.78-.2-1.5-.07-2.15.39-1.3.52-2.57.65-3.81.39v-.39h1.17v-.1c.91.39,1.86.29,2.83-.29-1.63-.52-3.29-.94-4.98-1.27-.13.33-.16.62-.1.88-.07-.78-.42-1.2-1.07-1.27-.13.33-.2.62-.2.88-.13-.39-.16-.88-.1-1.46l-1.07-1.17c-.33.2-.49.42-.49.68.46,0,.59.26.39.78l-.29-.29c-.13.07-.16.13-.1.2,0-.52-.1-1.07-.29-1.66-.39.52-.52,1.11-.39,1.76-.07-1.37-.42-2.64-1.07-3.81-.2.39-.23.75-.1,1.07l-.68-1.37-.49.29c-.72-.91-1.46-1.79-2.25-2.64l-2.64-6.05c-.26-2.6-.49-5.24-.68-7.91.65-2.86,1.01-5.83,1.07-8.89l-.29-.29h.2c-.07-2.47.36-4.88,1.27-7.23-.07-.06-.13-.1-.2-.1l-.2.1c.52-2.99.88-6.02,1.07-9.08.26-.39.42-.88.49-1.46l-.2-1.07c1.43-8.27,3.78-16.28,7.03-24.02l-.1-.88h.68c3.52-4.04,7.81-5.53,12.89-4.49,2.67,4.62,4.49,9.51,5.47,14.65-.78,2.47-1.99,4.72-3.61,6.74-2.47,6.19-4.36,12.53-5.66,19.04-.46,1.3-.94,2.51-1.46,3.61.13.26.29.26.49,0l.39-.78c-.52,1.89-1.17,3.68-1.95,5.37-.59.98-.98,2.02-1.17,3.12,0,.59.06,1.14.2,1.66.06-.78.46-1.33,1.17-1.66l.49-.88c-1.04,3.97-1.27,7.98-.68,12.01,2.67-3.65,5.73-7.03,9.18-10.16l1.07-1.37c.06.46.29.65.68.59.46-.72,1.24-1.07,2.34-1.07.39-.13.81-.29,1.27-.49-.13.26-.07.46.2.59.39-.06.81-.1,1.27-.1-.07.26.03.42.29.49l.88-.2c3.78,1.37,7.32,3.22,10.65,5.57l.1-.78c.65.33.94.81.88,1.46,1.56,1.43,3.19,2.77,4.88,4,2.15-3.19,3.35-6.74,3.61-10.64.85-.52,1.2-1.3,1.07-2.34l.59-.29c.2-2.02,0-4.04-.59-6.05v-.39c.13.07.23.13.29.2-.07-.85-.07-1.72,0-2.64-.46-.72-.81-1.5-1.07-2.34v-.39c-.46-.65-.75-1.4-.88-2.25l-.2-.78c.39,0,.72.16.98.49l-.2.1c.59.2.91.62.98,1.27v.49l.68-.29c-.2-.78-.55-1.43-1.07-1.95l.49-.49c-.07.46.16.72.68.78.26-.46.13-.81-.39-1.07.52,0,.88.23,1.07.68.2-.26.23-.59.1-.98l.68.59c.06-.33.1-.68.1-1.07.13.78.49,1.46,1.07,2.05.06-.78-.16-1.37-.68-1.76l.78-.29c0-.33-.13-.59-.39-.78l-.49.29-.29-.39c.2.07.46.07.78,0l-.29-1.17c1.17.91,2.05,2.02,2.64,3.32-.59.2-.78.52-.59.98.39-.39.75-.36,1.07.1.26-.13.26-.36,0-.68.98,1.17,1.69,2.51,2.15,4,.33.52.65,1.04.98,1.56-.65-2.47-1.6-4.88-2.83-7.23.13.07.26.16.39.29.13-.33.03-.59-.29-.78-.59.07-.94-.2-1.07-.78.2-.33.39-.68.59-1.07l1.46,1.86.2-.29c.46.2.68.55.68,1.07l-.39-.29c-.07.59.16,1.07.68,1.46h.2c.26.98.78,1.79,1.56,2.44h.59c0-.46-.2-.81-.59-1.07-.46-.06-.75-.36-.88-.88l.39.39c.06-.72-.23-1.27-.88-1.66-.33-.78-.72-1.56-1.17-2.34.85,1.43,1.79,2.77,2.83,4,.2-.26.46-.26.78,0,.13.13.23.26.29.39-.39.33-.42.72-.1,1.17l.78.98.1-.2.39.78h-.1v.78ZM269.38,139.82l.1-.39v-1.27l-.1,1.66ZM270.07,141.28l.2-.2,1.17,1.37c-.52-1.43-.98-2.9-1.37-4.39v3.22ZM270.65,132.89v-.88c-.46.78-.46,1.53,0,2.25l-.49.29c0,.39.13.65.39.78.39-.78.42-1.59.1-2.44ZM270.56,137.08l.1-1.56c-.52.46-.55.98-.1,1.56ZM274.66,152.42v.1c-.13-.06-.16-.11-.1-.15.06-.03.1-.02.1.05ZM277.2,154.47l-.39-.68c.13.06.26.16.39.29v.39ZM296.34,91.87l-.29.29c-.33.33-.68.46-1.07.39.33-.78.78-1.01,1.37-.68ZM307.57,127.91v-.29l-.1-.2.1.49ZM308.84,128.3h-.49v-.39c.2.13.36.26.49.39ZM315.67,93.73l-.2-.68.2.39v.29ZM316.65,94.6l.1.49-.68-.59h.2c-.13-.46,0-.42.39.1ZM316.26,97.92h-.2v-.49h.2v.49ZM316.65,97.05l.1-.49c.59.85,1.01,1.76,1.27,2.73-.39-.78-.85-1.53-1.37-2.25ZM316.75,95.87l.29-.88c.59,1.04,1.3,1.89,2.15,2.54l-.39.1c.26.26.36.52.29.78-.26-.33-.52-.65-.78-.98-.59.39-.94.1-1.07-.88.2.46.52.72.98.78-.33-.72-.78-1.33-1.37-1.86l-.1.39ZM317.24,100.95l-.2.2c-.2-.2-.13-.26.2-.2ZM317.14,96.46c-.07-.06-.1-.08-.1-.05s.06.08.2.15l-.1-.1ZM317.63,100.66l.2.1v.49c-.26,0-.46-.1-.59-.29.06-.06.11-.1.15-.1s.11-.06.24-.2ZM317.82,102.32l-.2.1-.1-.49c0,.2.1.33.29.39ZM317.92,103.39l.29.39c-.26,0-.36-.13-.29-.39ZM319.97,105.25l-1.37-.39c.2-.06.36-.03.49.1-.07-.46-.2-.91-.39-1.37h-.29c.06,0,.13-.06.2-.2-.2-.2-.33-.46-.39-.78h.39c.52.91.85,1.82.98,2.73.13.91.49,1.6,1.07,2.05-1.24.07-1.46-.65-.68-2.15ZM318.6,98.71l-.29-.39c.33.52.72,1.04,1.17,1.56-.59-.13-.88-.52-.88-1.17ZM318.51,101.25l-.2-.98v-.39c.26.39.44.68.54.88s-.02.36-.34.49ZM319.09,155.05l-.49-.2.1-.59.39.78ZM319.09,93.14l-.29-.39c.2.07.29.2.29.39ZM319.09,95.19v.1c-.13-.06-.18-.13-.15-.2.03-.06.08-.03.15.1ZM319.29,102.51l-.1.1-.2-1.07c.26.33.36.65.29.98ZM319.09,93.14l.29.39c-.26,0-.36-.13-.29-.39ZM319.19,155.05v-.1c-.07.06-.07.1,0,.1ZM319.19,97.53l.39-.1c-.13.13-.26.16-.39.1ZM319.68,95.48l-.1.39c-.2-.13-.31-.24-.34-.34-.03-.1.11-.11.44-.05ZM320.07,98.51l-.59-.1.1-.49c.39.59.6,1.01.63,1.27.03.26-.02.03-.15-.68ZM319.97,103.2v.29c-.33-.13-.46-.31-.39-.54.06-.23.2-.15.39.24ZM322.41,101.34l-.39-1.27c-.78-1.24-1.53-2.51-2.25-3.81.2.26.39.23.59-.1.26.39.39.78.39,1.17.06.07.16.03.29-.1-.07.46.13.72.59.78-.13.07-.2.16-.2.29l.29.2c.06-.26.23-.2.49.2-.13-.52-.2-1.07-.2-1.66l.2.39.2-.1.29.49c-.13.13-.16.29-.1.49l.59.49.1-.1c0,.91.36,1.56,1.07,1.95v-.59c.33.72.75,1.37,1.27,1.95.06-.46-.07-.85-.39-1.17.85.33,1.4.91,1.66,1.76l-.78-.78v.59l-.2-.2c-.2.07-.26.2-.2.39l-.78-1.17c.26.78.52,1.56.78,2.34l.88.78h-.29c-.26.39-.16.65.29.78-.39-.06-.68-.2-.88-.39,0-.91-.39-1.69-1.17-2.34l.2-.2-1.76-2.54c.2,1.04.59,1.99,1.17,2.83-.52.2-1.11-.26-1.76-1.37ZM320.17,101.64l-.2-.49.2.1v.39ZM320.17,94.7v-.39h.1v.39h-.1ZM320.56,95.68l-.29-.59.49-.1c.13.46.33.88.59,1.27h-.39v-.34c0-.1-.13-.18-.39-.24ZM321.04,103.1l.49.68c-.85-.39-1.22-.83-1.12-1.32s.31-.28.63.63ZM320.75,154.17h-.2c.33-.52.75-.65,1.27-.39.06.2.13.36.2.49-.52.26-.94.23-1.27-.1ZM320.85,104.08l-.1.1-.1-.59c.2.2.26.36.2.49ZM321.04,106.91h.29c0,.2.1.33.29.39l-.59-.39ZM321.73,95l.39-.49-.1.88-.78-1.07.49.68ZM321.73,96.85l-.1.1-.29-.39c.13.07.26.16.39.29ZM321.63,103.98l-.1-.2c.2.26.31.42.34.49.03.07-.05-.03-.24-.29ZM322.02,154.37c-.07,0-.07.03,0,.1v-.1ZM322.12,110.42v.78l.88-.1c-.39-.13-.68-.36-.88-.68ZM322.12,153.49h.49-.49ZM322.41,96.07v-.29l.39.49.39-.2-.29-.39.39.2c-.26.39-.23.75.1,1.07l.2.1.1-.59.39.49-.1-.1c-.39.39-.46.78-.2,1.17l-.39-.29c.06.13.16.1.29-.1-.65-.26-1.07-.78-1.27-1.56ZM322.71,97.73h.1c.06.13.1.23.1.29-.13-.06-.2-.16-.2-.29ZM323.19,103.2l.59.59c-.2,0-.39-.2-.59-.59ZM323.29,153.39l.1-.59c.46.07.59.26.39.59-.26-.2-.42-.2-.49,0ZM325.15,100.07v.39l-1.17-2.05,1.17,1.66ZM325.73,152.12l-.39.1c.26-.26.5-.33.73-.2.23.13.11.16-.34.1ZM325.63,107.79l-.1-.1c.13-.06.13-.2,0-.39v.39c-.07.13-.03.16.1.1ZM325.63,107.89v.2-.2ZM325.93,107.4l.88.29c-.46-.78-.75-.88-.88-.29ZM327,99.88l-.2.78c.33.46.55.91.68,1.37h-.29c-.46-.52-.75-1.07-.88-1.66-.33-.46-.44-.72-.34-.78.1-.06.44.03,1.03.29ZM326.32,111.79l-.29-.29.59.88-.29-.59ZM327,103l.29.2c.06-.13.16-.29.29-.49-.07.33-.03.59.1.78.06.13.2.16.39.1l.29-.2v1.07c-.07-.46-.29-.75-.68-.88-.07-.13-.13-.26-.2-.39-.2.26-.26.55-.2.88l-.68-.68.39-.39ZM327.88,102.03v.1c-.2.2-.29.39-.29.59-.07-.26.03-.49.29-.68ZM327.59,105.74h.29c-.07-.2-.16-.42-.29-.68v.68ZM328.27,102.22l-.39-.1c.13-.06.26-.03.39.1ZM328.66,110.03l-.39-.1.49.49-.1-.39ZM329.64,149.98l-.78.2c.2-.26.46-.33.78-.2ZM329.35,112.38l.1-.78c-.2,0-.33-.06-.39-.2v-.39c-.07.13-.07.26,0,.39.06.33.16.65.29.98ZM329.05,107.98l.49.98v-.1l-.49-.88ZM330.81,111.6l-.49-.88c.39,1.17.55,1.46.49.88ZM331.01,149.39l-.29-.1c0-.2.08-.26.24-.2.16.07.18.16.05.29ZM332.76,122.53v-2.15c-.33-.13-.49-.39-.49-.78-.26,1.04-.1,2.02.49,2.93ZM333.35,126.34l-.1-.29-.1.78c-.33.33-.36.62-.1.88,0-.46.1-.91.29-1.37ZM333.45,114.53v-.39c0-.13-.07-.23-.2-.29l.2.68ZM335.5,130.25l.1-.1c0,.13-.03.21-.1.24-.07.03-.07-.02,0-.15ZM335.79,129.96h-.1v-.78h.1v.78ZM336.96,131.62l-.39,1.07c-.07-.33.06-.68.39-1.07Z"/>
    <path d="M446.7,78.54l4.39.88c3.71,1.17,6.45,3.52,8.2,7.03.1,2.54-.44,4.88-1.61,7.03,0,.98-.39,1.76-1.17,2.34-1.96,1.17-3.66,2.49-5.13,3.96l.29.15c-2.34.1-3.71,1.03-4.1,2.78-2.93,1.95-6.06,2.88-9.38,2.78-5.57,0-11.04-.19-16.41-.59-6.06-2.64-10.4-7.08-13.04-13.33l-1.03,1.32,1.17.59c-1.76,2.64-4.01,4.35-6.74,5.13-1.86,1.56-4.05,2.49-6.59,2.78-.78.39-1.37.93-1.76,1.61-2.25.29-4.25,1.08-6.01,2.34-.98.59-1.76,1.27-2.34,2.05-1.66.68-3.27,1.17-4.83,1.46-1.66.88-3.37,1.12-5.13.73-3.22,1.27-6.5,1.66-9.81,1.17-6.15-1.46-10.99-4.93-14.5-10.4-.29-1.17-.68-2.29-1.17-3.37.1-.39.24-.83.44-1.32,1.37,1.17,3.08,1.61,5.13,1.32l3.52-.59c-1.56-2.15-3.08-4.34-4.54-6.59-1.37-12.79-1.17-25.63.59-38.53-.1-1.17-.44-2.29-1.03-3.37,2.25-.39,4.54-.24,6.88.44,6.35,4.79,8.5,11.28,6.45,19.48-.2,8.79-.25,17.53-.15,26.22,1.76.2,3.52,0,5.27-.59-1.46-8.79-1.76-17.72-.88-26.81-.39-8.2.24-16.41,1.9-24.61l-1.46-2.93c.78-.59,1.71-.98,2.78-1.17,5.17,1.56,9.96,4.05,14.36,7.47,1.66,6.06,1.76,12.11.29,18.16,5.57-2.05,10.84-1.37,15.82,2.05,3.22-6.54,5.17-13.43,5.86-20.65-1.08-1.07-1.9-2.29-2.49-3.66.1-.88-.1-1.71-.59-2.49,1.85.2,3.71.1,5.57-.29,5.27,1.37,9.76,4.05,13.48,8.06,2.54,2.54,4.15,5.47,4.83,8.79,3.42-1.17,6.54-2.98,9.38-5.42,5.27.1,9.81,2.25,13.62,6.45,2.05,2.54,2.49,5.23,1.32,8.06-.88.39-1.66.83-2.34,1.32-1.86.98-3.71,1.51-5.57,1.61-1.46.39-2.78.98-3.96,1.76-1.66.2-3.13.83-4.39,1.9-1.27.39-2.49.54-3.66.44v.15c-2.05.39-4.05.29-6.01-.29-.98-.59-1.96-1.12-2.93-1.61-1.66,1.66-3.03,3.42-4.1,5.27,1.66,2.64,2.83,5.47,3.52,8.5-.49.88-.2,1.46.88,1.76,4.1.98,7.64,1.12,10.62.44,2.98-.68,5.74-3.08,8.28-7.18ZM379.47,144.17l6.01,1.76c.68,3.71.88,7.47.59,11.28-1.08,2.25-2.44,4.25-4.1,6.01-1.56.88-3.08,1.76-4.54,2.64-9.38.29-16.6-3.52-21.68-11.43-.98-1.95-1.86-3.96-2.64-6.01,1.07-3.03,2.59-5.91,4.54-8.64,3.32-1.37,6.67-1.81,10.03-1.32,3.37.49,7.3,2.39,11.79,5.71ZM427.81,146.36l-1.03,1.17c3.52,2.15,6.45,4.79,8.79,7.91.49,2.93-.25,5.57-2.2,7.91-2.15,1.17-4.39,2-6.74,2.49-2.15.1-4.05-.49-5.71-1.76-2.15-2.44-4.15-5.03-6.01-7.76-.68-2.74,0-5.22,2.05-7.47,3.03-2.05,6.25-2.44,9.67-1.17-1.27-1.76-2.69-3.42-4.25-4.98-.29-.68-.68-1.37-1.17-2.05-4.1,2.34-8.4,3.61-12.89,3.81,1.95,2.15,2.78,4.59,2.49,7.32-1.56,3.42-2.98,6.79-4.25,10.11-2.44,1.27-4.74,2.59-6.88,3.96-4.2,0-7.28-1.86-9.23-5.57-1.27-2.15-1.22-4.39.15-6.74,2.15-.59,3.71-1.9,4.69-3.96.88-1.56,1.17-3.27.88-5.13-4.39-.49-8.64-1.37-12.74-2.64-2.05-.1-3.91-.63-5.57-1.61-2.74-3.12-4.25-6.83-4.54-11.13,1.37-.19,2.68-.63,3.96-1.32,2.25.39,4.34-.19,6.3-1.76-3.32-3.52-4.2-7.47-2.64-11.87,5.76-3.32,11.47-6.79,17.14-10.4,4.59,1.66,8.2,4.54,10.84,8.64-.49,2.54-1.81,4.1-3.96,4.69-3.13,1.56-6.01,3.32-8.64,5.27,1.46,1.56,3.17,1.56,5.13,0,6.05-2.73,11.57-6.4,16.55-10.99.97-.19,1.81.15,2.49,1.03,1.95-.19,3.56.44,4.83,1.9.88,1.08,1.17,2.25.88,3.52-1.86,1.17-3.57,2.49-5.13,3.96-.59.68-1.17,1.32-1.76,1.9,4.98.29,8.88,2.39,11.72,6.3,1.37,2.05,2.29,4.2,2.78,6.45.39,1.27.39,2.54,0,3.81.29,1.17.44,2.3.44,3.37-1.27,1.37-2.37,2.42-3.3,3.15-.93.73-1.98.61-3.15-.37ZM404.81,84.25l2.93,1.46,1.76-7.91-3.52-5.71c-.88.68-1.76,1.27-2.64,1.76-4.98,2.54-9.96,3.08-14.94,1.61-.1,4,.19,7.86.88,11.57,3.03-1.56,5.64-3.03,7.84-4.39,2.2-1.37,4.76-.83,7.69,1.61ZM405.69,132.15l-4.1,2.2c5.86-.39,11.72-.93,17.58-1.61-1.86-1.27-3.35-2.17-4.47-2.71-1.12-.54-2.52-.37-4.17.51-1.66.88-3.27,1.42-4.83,1.61Z"/>
    <path d="M528.32,52.03l.29,1.76c5.17,1.27,10.5,1.81,15.97,1.61.68-.49,1.66-.68,2.93-.59.49.59,1.07.44,1.76-.44,2.54-2.34,3.46-5.08,2.78-8.2,1.85-.68,3.86-1.03,6.01-1.03l2.34-.15c.78-.98,1.9-1.42,3.37-1.32.39.78,1.12.98,2.2.59.88.1,1.66.39,2.34.88.68-.1,1.41-.15,2.2-.15,1.37.88,2.64,1.81,3.81,2.78,1.66.39,3.03,1.42,4.1,3.08-.2.78.1,1.12.88,1.03.88,1.27,1.9,2.39,3.08,3.37l.15-.29c.97,2.25,1.76,4.54,2.34,6.88.29,2.54-.39,4.83-2.05,6.88-2.64,4.1-5.52,7.91-8.64,11.43-3.22,2.25-6.69,3.13-10.4,2.64-1.76-1.27-3.61-2.2-5.57-2.78-4.88-2.25-7.28-5.81-7.18-10.69-.68-.29-1.37-.19-2.05.29h-1.9c.19-.78.78-1.37,1.76-1.76-.88-.29-1.71-.39-2.49-.29-.2-.1-.39-.15-.59-.15.39-.29.78-.63,1.17-1.03-3.22.39-6.4.73-9.52,1.03-2.25.59-4.05,1.61-5.42,3.08l-.44,2.05c-.1-1.17-.34-2.29-.73-3.37-.78,2.15-1.52,4.25-2.2,6.3-.98.68-1.52,1.51-1.61,2.49-1.66,1.86-3.42,3.47-5.27,4.83l-.15-.29-.59.59c-.29-.49-.2-.93.29-1.32.19-1.07.68-1.85,1.46-2.34l-.44-3.22c-2.83,2.74-5.91,4.98-9.23,6.74-1.27.29-2.49.34-3.66.15.1,0,.15-.1.15-.29-1.56-.1-3.08.1-4.54.59,0-.19.15-.39.44-.59-.49-.39-.98-.34-1.46.15-2.64-.19-4.88-1.27-6.74-3.22-.1-.49.05-.93.44-1.32-1.86-1.17-3.66-1.42-5.42-.73-1.86-.59-3.76-.88-5.71-.88-1.76-.88-3.57-1.71-5.42-2.49h-.73c-2.54-2.73-4.45-5.86-5.71-9.38h-1.03c-.59-3.22.24-6.05,2.49-8.5.88-.68,1.95-1.27,3.22-1.76.29.78.88.88,1.76.29,1.17,0,2.39.15,3.66.44,1.07,1.56,2.49,2.54,4.25,2.93,0-.39.19-.63.59-.73-.2.2-.15.44.15.73.39-.19.78-.54,1.17-1.03v.15c1.37-1.37,2.2-3.08,2.49-5.13l-.88-.29c1.17-.19,1.81-1.03,1.9-2.49,1.17-2.93,3.08-5.17,5.71-6.74,3.12-.68,6.05-.59,8.79.29-.2.2-.25.39-.15.59l1.76.15,1.46-.44,1.61.44c.68-.1,2,.68,3.96,2.34.97-.29,2-.1,3.08.59.78,1.17.93,2.3.44,3.37,1.37-.19,2.59,0,3.66.59,1.07.59,2.25,1.03,3.52,1.32ZM587.65,135.67l.29-1.61c5.66.49,10.2,2.78,13.62,6.88-.39,2.25-.39,4.49,0,6.74-.88.68-1.27,1.46-1.17,2.34-1.66,1.56-3.08,3.27-4.25,5.13-.88,2.54-2.44,4.25-4.69,5.13.29-.78-.1-.59-1.17.59-.98.88-2.25,1.61-3.81,2.2l-1.9-.73c-2.25,1.46-4.74,2.15-7.47,2.05-8.11.19-15.97-.78-23.58-2.93-2.93,1.95-5.91,2.29-8.94,1.03-1.86.59-3.47.24-4.83-1.03-.49.39-.98.34-1.46-.15-3.03-1.66-4.88-3.96-5.57-6.88-1.27-5.86-1.42-11.82-.44-17.87l-.88.59c.1-.29.15-.68.15-1.17-.2-.19-.44-.29-.73-.29v-.59c-.88.2-1.66.59-2.34,1.17-2.15,1.46-4.01,3.13-5.57,4.98l-.73.73c2.93-3.71,6.1-7.32,9.52-10.84.39-.49.54-1.12.44-1.9l-.15-.15c-2.15,2.15-4.39,4.1-6.74,5.86.78-.59,1.07-1.32.88-2.2-1.08,1.27-2.3,2.2-3.66,2.78-.59.98-1.64,2.2-3.15,3.66-1.52,1.46-3.15,3.47-4.91,6.01-1.37,1.66-2.98,3.03-4.83,4.1-4.3,5.37-7.72,11.08-10.25,17.14-.2,1.46-.93,1.93-2.2,1.39-1.27-.54-1.96-.12-2.05,1.25-2.25-.1-4.25-.68-6.01-1.76-1.08-.2-1.76-.64-2.05-1.32l-3.66-1.76c-1.37-2.15-2.15-2.74-2.34-1.76-.39-1.17-.59-2.44-.59-3.81l.88-1.9,2.78-2.78c-.98-1.07-.93-1.85.15-2.34.29.39.68.59,1.17.59.19-.49.59-.88,1.17-1.17l1.17.59c.19-.29.29-.68.29-1.17.29,0,.54-.15.73-.44,0-.19-.1-.39-.29-.59l1.9-.15,13.33-10.99-8.2,9.96c.19.2.19.39,0,.59v1.17c-.78,2.54-.78,3.71,0,3.52.68-1.27,1.81-2.1,3.37-2.49,1.27-1.37,2.49-2.83,3.66-4.39l2.49-2.34c-.49,1.37,0,1.66,1.46.88,4-5.57,8.69-10.5,14.06-14.79-3.03,4.1-5.71,8.35-8.06,12.74,1.76-.68,3.27-1.85,4.54-3.52.68-1.17,1.51-2.29,2.49-3.37l2.78-1.9c1.37-1.07,2.68-2.39,3.96-3.96.97-1.07,1.95-2.29,2.93-3.66-1.08-.19-2.1-.1-3.08.29,1.17-.39,2-1.12,2.49-2.2-1.17.39-2.3.78-3.37,1.17.88-.59,1.56-1.42,2.05-2.49l.29.44.44-.59c-.1-.39-.1-.93,0-1.61-1.96.39-3.61,1.22-4.98,2.49-.39,1.08-.83,2.1-1.32,3.08v-.29c-2.15,2.05-4.25,4-6.3,5.86l-.15,1.17c-.49-.39-.98-.29-1.46.29.97-1.07,2-2.2,3.08-3.37,1.37-1.46,2.98-4.3,4.83-8.5l-1.03-.88-3.22,1.46-1.76,1.46c-.59.29-1.08.68-1.46,1.17l-.44-.44-.59.59c-.2.78-.05,1.17.44,1.17.88,3.71-.05,6.88-2.78,9.52-2.44.88-5.32,1.12-8.64.73l-3.08-6.74c-.49-.59-.73-1.27-.73-2.05-.68-.49-1.27-1.07-1.76-1.76l.73-3.37c-1.86,1.08-3.81,1.86-5.86,2.34-5.08-.78-8.94-3.32-11.57-7.62-.68-1.46-.88-2.98-.59-4.54,1.37-3.91,3.37-7.62,6.01-11.13l.59-.29c2.25-3.71,4.74-7.37,7.47-10.99-.49-.78-.59-1.71-.29-2.78l.29.88c1.76-.59,3.42-1.51,4.98-2.78,2.73.1,4.69,1.37,5.86,3.81,1.07-.68,2.2-.78,3.37-.29.59,1.37,1.56,1.71,2.93,1.03,3.32-.49,6.64-1.07,9.96-1.76l-.15.15c.1.68.54.98,1.32.88,3.42,0,6.74.64,9.96,1.9-.59-.98-1.42-1.76-2.49-2.34v-.59c2.05.59,4,1.61,5.86,3.08,2.73,1.56,4.83,3.61,6.3,6.15.29-.88.78-1.76,1.46-2.64l-.44-.29,1.32-1.46c.19.68.59.98,1.17.88.59-.98,1.37-1.85,2.34-2.64l.44.44c1.46-1.85,3.52-2.2,6.15-1.03,1.76.49,3.37.29,4.83-.59l1.03-.15v.15c.49.2.83-.05,1.03-.73-.1.29-.05.49.15.59.78-.68,1.81-1.03,3.08-1.03.39.49.93.49,1.61,0v-.59c0,.39.19.73.59,1.03l.44-.88c1.27.59,2.68.83,4.25.73,3.12,1.56,6.25,3.17,9.38,4.83,0,1.37.68,2.49,2.05,3.37-.39,1.27,0,2.25,1.17,2.93,1.46,9.47,2.1,18.95,1.9,28.42-.88,2.93-2.78,4.35-5.71,4.25-2.25.29-4.39.1-6.45-.59-1.17.78-2.34,1.08-3.52.88-2.64-2.15-5.52-3.86-8.64-5.13-1.76-1.37-2.59-3.08-2.49-5.13,2.25-1.37,4.78-2.15,7.62-2.34,1.76-5.86,2.29-11.91,1.61-18.16-2.74-.39-5.08.2-7.03,1.76-1.08,1.27-1.76,2.64-2.05,4.1-8.11,11.23-11.04,23.73-8.79,37.5,7.52,3.03,15.38,4.2,23.58,3.52,4.78-3.03,8.01-7.37,9.67-13.04.49-.39.63-.98.44-1.76,1.37-.29,2.73-.29,4.1,0ZM481.89,163.5h-.15l.73-1.03c.1.59.07,1-.07,1.25-.15.24-.32.17-.51-.22ZM489.36,55.98l1.46-.59c-.49.39-.54.83-.15,1.32-.1,0-.15-.05-.15-.15l-.29-.29-1.03.88c-.29-.19-.25-.59.15-1.17ZM490.82,56.86c-.1.29-.12.39-.07.29.05-.1.02-.24-.07-.44l.15.15ZM496.1,79.71h-1.17c.29-.39.68-.39,1.17,0ZM496.1,79.71c.19.2.44.2.73,0h-.73ZM501.08,138.45l1.17-1.17c-.39.49-.78.88-1.17,1.17ZM521.29,114.58c2.15-4.1,4.39-7.91,6.74-11.43-9.77,3.61-17.87,9.47-24.32,17.58,3.22,1.17,6.3,2.64,9.23,4.39l.88-1.76h-.73v-1.17l4.69-4.98.29.29c.88-1.66,1.95-2.64,3.22-2.93ZM515.43,126.88h-.15c.29-1.37,1.27-2.25,2.93-2.64l-1.17,1.17.15.29c-.49.68-1.08,1.08-1.76,1.17ZM518.21,124.24l.59-.59c-.2.29-.39.49-.59.59ZM520.12,141.53h-.29c.29-1.46.59-2.1.88-1.9.29.2.1.83-.59,1.9ZM520.56,89.23,531.4,140.06h.15v.59h-.15v-.59ZM563.04,41.92l-.29.15c0-.29.15-.41.44-.37.29.05.24.12-.15.22Z"/>
  </g>
</svg>